<?xml version="1.0" encoding="UTF-8"?>
<svg width="27px" height="27px" viewBox="0 0 27 27" version="1.1" xmlns="http://www.w3.org/2000/svg" xmlns:xlink="http://www.w3.org/1999/xlink">
    <!-- Generator: Sketch 49.3 (51167) - http://www.bohemiancoding.com/sketch -->
    <title>Page 1</title>
    <desc>Created with Sketch.</desc>
    <defs>
        <circle id="path-1" cx="13.5" cy="13.5" r="13.5"></circle>
    </defs>
    <g id="Email" stroke="none" stroke-width="1" fill="none" fill-rule="evenodd">
        <g id="inbox" transform="translate(-1169.000000, -9.000000)">
            <g id="Page-1" transform="translate(1169.000000, 9.000000)">
                <mask id="mask-2" fill="white">
                    <use xlink:href="#path-1"></use>
                </mask>
                <use id="Mask" fill="#D8D8D8" xlink:href="#path-1"></use>
                <path d="M13.5602485,28.3092113 L23.1203765,25.970002 C23.1203765,25.970002 23.0912781,24.2598483 22.23246,22.6112168 C21.5914642,21.3824336 18.8728435,20.5884633 15.5265291,19.3970922 L15.4849599,16.9029448 C15.4849599,16.9029448 16.7179001,16.0507778 16.6904645,14.3888442 C17.1061557,14.3813618 17.49358,12.7119458 16.6555465,12.3103881 C16.6513895,12.0634675 17.730524,9.96339536 17.4245752,8.55586485 C16.9739659,6.48489112 11.15512,6.58216287 10.7676958,8.25157886 C8.27354841,8.29314799 9.99949841,12.084252 10.0053181,12.4217933 C9.18141807,12.8507867 9.62454492,14.5069006 10.0402362,14.4994181 C10.0676718,16.162183 11.328879,16.972781 11.328879,16.972781 L11.3704481,19.466097 C8.06653418,20.7688733 5.37451775,21.6526329 4.77592237,22.9022007 C3.97197552,24.5790991 4.00024253,26.2892529 4.00024253,26.2892529 L13.5602485,28.3092113 Z" fill="#F4F3F3" mask="url(#mask-2)"></path>
            </g>
        </g>
    </g>
</svg>