<?xml version="1.0" encoding="UTF-8"?>
<svg width="95px" height="27px" viewBox="0 0 95 27" version="1.1" xmlns="http://www.w3.org/2000/svg" xmlns:xlink="http://www.w3.org/1999/xlink">
    <!-- Generator: Sketch 49.3 (51167) - http://www.bohemiancoding.com/sketch -->
    <title>logo</title>
    <desc>Created with Sketch.</desc>
    <defs></defs>
    <g id="Email" stroke="none" stroke-width="1" fill="none" fill-rule="evenodd">
        <g id="inbox" transform="translate(-18.000000, -10.000000)">
            <g id="Sidebar" transform="translate(-1.000000, -1.000000)">
                <g id="logo" transform="translate(19.000000, 11.000000)">
                    <path d="M39.6944173,6.4905599 L44.0425618,6.4905599 L44.0425618,11.8649089 C44.472794,11.4135177 44.961206,11.0749794 45.5078125,10.8492839 C46.054419,10.6235883 46.6592035,10.5107422 47.3221842,10.5107422 C48.6904637,10.5107422 49.822451,11.0026806 50.7181803,11.9865723 C51.6139096,12.9704639 52.0617676,14.3828033 52.0617676,16.2236328 C52.0617676,17.4508525 51.857234,18.5317065 51.4481608,19.4662272 C51.0390876,20.4007479 50.4730939,21.0989832 49.7501628,21.5609538 C49.0272316,22.0229244 48.2249664,22.2539063 47.3433431,22.2539063 C46.5886735,22.2539063 45.8974912,22.09169 45.2697754,21.7672526 C44.7972253,21.5133451 44.282365,21.0372756 43.725179,20.3390299 L43.725179,22 L39.6944173,22 L39.6944173,6.4905599 Z M44.0108236,16.3505859 C44.0108236,17.3168451 44.1924352,18.0168435 44.5556641,18.4506022 C44.9188929,18.8843609 45.3790934,19.101237 45.9362793,19.101237 C46.4511473,19.101237 46.8831363,18.8878873 47.2322591,18.4611816 C47.581382,18.0344759 47.7559408,17.3168453 47.7559408,16.3082682 C47.7559408,15.4195919 47.5849084,14.7672004 47.2428385,14.3510742 C46.9007687,13.934948 46.4864119,13.726888 45.9997559,13.726888 C45.414358,13.726888 44.9365253,13.9437641 44.5662435,14.3775228 C44.1959617,14.8112815 44.0108236,15.4689626 44.0108236,16.3505859 Z M58.0497233,14.4039714 L53.9343262,13.9702148 C54.0894919,13.2508102 54.3134208,12.6848165 54.6061198,12.2722168 C54.8988187,11.8596171 55.3202284,11.5016834 55.8703613,11.1984049 C56.2653286,10.9797624 56.8084004,10.8104932 57.4995931,10.6905924 C58.1907858,10.5706917 58.9383912,10.5107422 59.7424316,10.5107422 C61.0331282,10.5107422 62.0699017,10.5830342 62.8527832,10.7276204 C63.6356647,10.8722067 64.2880562,11.1737173 64.8099772,11.6321615 C65.1767325,11.9495459 65.4659006,12.399167 65.6774902,12.9810384 C65.8890798,13.5629098 65.994873,14.1183242 65.994873,14.6472982 L65.994873,19.6090495 C65.994873,20.1380235 66.0283742,20.5523802 66.0953776,20.8521322 C66.162381,21.1518841 66.3087283,21.5345029 66.5344238,22 L62.4930827,22 C62.330864,21.7108275 62.2250708,21.490425 62.1756999,21.3387858 C62.126329,21.1871466 62.0769588,20.9491119 62.0275879,20.6246745 C61.463349,21.1677545 60.9026449,21.5556629 60.345459,21.7884115 C59.5837364,22.0987429 58.6985999,22.2539063 57.6900228,22.2539063 C56.3499553,22.2539063 55.3325773,21.9435795 54.6378581,21.3229167 C53.9431389,20.7022538 53.5957845,19.9370163 53.5957845,19.027181 C53.5957845,18.1737696 53.8461618,17.472008 54.3469238,16.921875 C54.8476859,16.371742 55.7716133,15.962675 57.1187337,15.6946615 C58.7338677,15.3702241 59.7812205,15.1427687 60.2608236,15.0122884 C60.7404267,14.8818082 61.2482341,14.7107758 61.7842611,14.4991862 C61.7842611,13.9702122 61.6749414,13.599936 61.4562988,13.3883464 C61.2376562,13.1767568 60.8532742,13.0709635 60.3031413,13.0709635 C59.5978426,13.0709635 59.0688765,13.1838096 58.7162272,13.4095052 C58.4411607,13.5858299 58.218995,13.9173153 58.0497233,14.4039714 Z M61.7842611,16.6679688 C61.1918102,16.8795583 60.5746831,17.0664597 59.9328613,17.2286784 C59.058291,17.4614269 58.5046398,17.6906456 58.2718913,17.9163411 C58.0320897,18.1490897 57.9121908,18.4135727 57.9121908,18.7097982 C57.9121908,19.0483415 58.0303265,19.3251671 58.2666016,19.5402832 C58.5028766,19.7553993 58.850231,19.8629557 59.3086751,19.8629557 C59.7882782,19.8629557 60.2343729,19.7465832 60.6469727,19.5138346 C61.0595724,19.2810861 61.3522669,18.9972076 61.5250651,18.6621908 C61.6978633,18.3271739 61.7842611,17.8916585 61.7842611,17.3556315 L61.7842611,16.6679688 Z M67.8145345,18.8896484 L72.088623,18.4876302 C72.2649477,18.9954452 72.5117985,19.3586686 72.8291829,19.5773112 C73.1465673,19.7959538 73.5697402,19.9052734 74.0987142,19.9052734 C74.6770591,19.9052734 75.124917,19.781848 75.4423014,19.5349935 C75.689156,19.3516158 75.8125814,19.1223972 75.8125814,18.8473307 C75.8125814,18.5369993 75.6503651,18.2972014 75.3259277,18.1279297 C75.0931792,18.0080289 74.4760521,17.8599184 73.474528,17.6835938 C71.9792948,17.4226332 70.9407581,17.1810721 70.3588867,16.958903 C69.7770153,16.7367339 69.2868401,16.361168 68.8883464,15.832194 C68.4898526,15.30322 68.2906087,14.7001987 68.2906087,14.023112 C68.2906087,13.2825484 68.5057216,12.6442627 68.9359538,12.1082357 C69.366186,11.5722087 69.958628,11.1719577 70.7132975,10.9074707 C71.4679671,10.6429837 72.4800555,10.5107422 73.7495931,10.5107422 C75.0896606,10.5107422 76.0788271,10.613009 76.7171224,10.8175456 C77.3554177,11.0220822 77.8879102,11.3394618 78.3146159,11.769694 C78.7413216,12.1999262 79.0957288,12.7817889 79.3778483,13.5152995 L75.2941895,13.9173177 C75.1883947,13.5576154 75.0120726,13.2931324 74.7652181,13.1238607 C74.4266747,12.8981651 74.0176076,12.785319 73.5380046,12.785319 C73.0513485,12.785319 72.6969412,12.8717168 72.4747721,13.044515 C72.2526031,13.2173131 72.1415202,13.4271364 72.1415202,13.6739909 C72.1415202,13.9490574 72.2825778,14.1571174 72.5646973,14.2981771 C72.8468167,14.4392368 73.4604174,14.5661887 74.4055176,14.6790365 C75.8372739,14.8412552 76.9022589,15.0669473 77.6005046,15.3561198 C78.2987502,15.6452922 78.833006,16.0578858 79.2032878,16.5939128 C79.5735696,17.1299397 79.7587077,17.7188553 79.7587077,18.3606771 C79.7587077,19.0095519 79.5629902,19.6407847 79.1715495,20.2543945 C78.7801087,20.8680044 78.1629816,21.3564164 77.3201497,21.7196452 C76.4773178,22.082874 75.3294615,22.2644857 73.8765462,22.2644857 C71.8241271,22.2644857 70.3624175,21.9717911 69.4913737,21.3863932 C68.6203298,20.8009953 68.061389,19.9687554 67.8145345,18.8896484 Z M94.2842611,17.4508464 L85.6514486,17.4508464 C85.7290314,18.142039 85.9159328,18.6568993 86.2121582,18.9954427 C86.6282844,19.4820988 87.1713562,19.7254232 87.84139,19.7254232 C88.2645692,19.7254232 88.6665834,19.61963 89.0474447,19.4080404 C89.2801932,19.2740336 89.5305705,19.0377621 89.798584,18.6992188 L94.0409342,19.0906576 C93.3920595,20.2191354 92.6091897,21.0284535 91.6923014,21.5186361 C90.7754132,22.0088186 89.4600509,22.2539063 87.7461751,22.2539063 C86.2579949,22.2539063 85.0872167,22.044083 84.2338053,21.6244303 C83.380394,21.2047776 82.6733426,20.5382804 82.1126302,19.6249186 C81.5519178,18.7115568 81.2715658,17.6377557 81.2715658,16.4034831 C81.2715658,14.6472894 81.834033,13.2261339 82.9589844,12.139974 C84.0839357,11.053814 85.6373328,10.5107422 87.619222,10.5107422 C89.227303,10.5107422 90.4968215,10.7540666 91.4278158,11.2407227 C92.35881,11.7273787 93.0676245,12.4326668 93.5542806,13.3566081 C94.0409367,14.2805493 94.2842611,15.4830655 94.2842611,16.9641927 L94.2842611,17.4508464 Z M89.9043783,15.3878581 C89.8197424,14.5556056 89.5958134,13.9596372 89.2325846,13.5999349 C88.8693558,13.2402326 88.3915231,13.0603841 87.7990723,13.0603841 C87.1149326,13.0603841 86.5683343,13.33192 86.1592611,13.875 C85.8983006,14.2135434 85.7325579,14.7178243 85.662028,15.3878581 L89.9043783,15.3878581 Z" fill="#4A4A4A"></path>
                    <g id="logo-totem">
                        <ellipse id="Oval" fill="#FFB500" cx="13.3333333" cy="13.25" rx="13.3333333" ry="12.9166667"></ellipse>
                        <path d="M8.51727886,5.42041016 L12.6981871,5.42041016 L12.6981871,10.5880534 C13.1118719,10.1540234 13.5814988,9.82850586 14.1070819,9.61149089 C14.6326651,9.39447591 15.2141886,9.28597005 15.8516701,9.28597005 C17.1673234,9.28597005 18.2557728,9.75898778 19.117051,10.7050374 C19.9783292,11.6510871 20.4089618,13.0091057 20.4089618,14.7791341 C20.4089618,15.959153 20.2122949,16.9984357 19.8189553,17.8970133 C19.4256156,18.795591 18.8813909,19.466971 18.1862649,19.9111735 C17.4911388,20.355376 16.7197299,20.577474 15.8720152,20.577474 C15.1463714,20.577474 14.481773,20.4214968 13.8782001,20.1095378 C13.423825,19.8653959 12.928767,19.4076368 12.3930113,18.7362467 L12.3930113,20.3333333 L8.51727886,20.3333333 L8.51727886,5.42041016 Z M12.6676695,14.9012044 C12.6676695,15.8302998 12.8422961,16.5033752 13.1915546,16.9204508 C13.540813,17.3375265 13.9833135,17.5460612 14.5190692,17.5460612 C15.0141346,17.5460612 15.4295086,17.3409173 15.7652037,16.9306234 C16.1008987,16.5203294 16.2687437,15.8303 16.2687437,14.8605143 C16.2687437,14.0060179 16.1042895,13.3787184 15.7753762,12.978597 C15.4464629,12.5784756 15.0480429,12.378418 14.5801044,12.378418 C14.0172218,12.378418 13.5577673,12.5869527 13.2017271,13.0040283 C12.8456869,13.421104 12.6676695,14.0534897 12.6676695,14.9012044 Z" id="b" fill="#4A4A4A"></path>
                    </g>
                </g>
            </g>
        </g>
    </g>
</svg>